<svg xmlns="http://www.w3.org/2000/svg" viewBox="0 0 301.87 121.74">
	<title>Logo-Lisia-Ai</title>
	<g id="Layer_2" data-name="Layer 2">
		<g id="Livello_1" data-name="Livello 1">
			<path d="M15.56,37.84s3-14.41,16.07-19.48C37.77,16,49,14.85,60,14.76c11,.1,22.2,1.27,28.34,3.6,13,5.06,16.07,19.48,16.07,19.48a98.33,98.33,0,0,1,2.53,23.76,93.24,93.24,0,0,1-2.53,23.76s-3,14.41-16.07,19.48c-4.92,1.88-13.11,3-21.83,3.42L48.57,119.53a3,3,0,0,1-4.66-2.75l.54-9.21a53.25,53.25,0,0,1-12.82-2.73c-13-5.06-16.07-19.48-16.07-19.48A98.33,98.33,0,0,1,13,61.6,93.7,93.7,0,0,1,15.56,37.84Z" fill="#cddde6" stroke="#cddde6" stroke-width="3.47"/>
			<path d="M91.36,23.08S88.34,8.67,75.29,3.6C69.15,1.27,58,.1,47,0c-11,.1-22.2,1.27-28.34,3.6C5.56,8.67,2.54,23.08,2.54,23.08A98.33,98.33,0,0,0,0,46.84,93.24,93.24,0,0,0,2.54,70.61S5.56,85,18.61,90.08c4.92,1.88,13.11,3,21.83,3.42l17.91,11.28A3,3,0,0,0,63,102l-.54-9.21a53.25,53.25,0,0,0,12.82-2.73c13-5.06,16.07-19.48,16.07-19.48a98.33,98.33,0,0,0,2.53-23.76A93.7,93.7,0,0,0,91.36,23.08Z" fill="#3e4ad4"/>
			<path d="M54.06,54.39a10.26,10.26,0,0,0-6.55-18.15,5.52,5.52,0,1,1,0-11h5.26a2.37,2.37,0,0,0,0-4.74H47.51A10.25,10.25,0,0,0,41,38.61a10.25,10.25,0,0,0,6.54,18.15,5.52,5.52,0,1,1,0,11H42.25a2.36,2.36,0,0,0,0,4.73h5.26a10.26,10.26,0,0,0,6.55-18.15ZM47.51,52A5.52,5.52,0,1,1,53,46.5,5.53,5.53,0,0,1,47.51,52Z" fill="#fff"/>
			<g opacity="0.2">
				<path d="M70.95,31.76H21.89a2.6,2.6,0,0,1,0-5.21H70.95a2.6,2.6,0,0,1,0,5.21Z" fill="#fff"/>
				<path d="M70.95,67.35H21.89a2.6,2.6,0,0,1,0-5.21H70.95a2.6,2.6,0,0,1,0,5.21Z" fill="#fff"/>
				<path d="M37.09,50.16H21.89a2.6,2.6,0,0,1,0-5.21H37.09a2.6,2.6,0,0,1,0,5.21Z" fill="#fff"/>
				<path d="M70.95,50.16H58.34a2.6,2.6,0,0,1,0-5.21h12.6a2.6,2.6,0,0,1,0,5.21Z" fill="#fff"/>
			</g>
		</g>
	</g>
</svg>