<svg xmlns="http://www.w3.org/2000/svg" viewBox="0 0 301.87 121.74"><title>Logo-Lisia-Ai</title><g id="Layer_2" data-name="Layer 2"><g id="Livello_1" data-name="Livello 1"><path d="M15.56,37.84s3-14.41,16.07-19.48C37.77,16,49,14.85,60,14.76c11,.1,22.2,1.27,28.34,3.6,13,5.06,16.07,19.48,16.07,19.48a98.33,98.33,0,0,1,2.53,23.76,93.24,93.24,0,0,1-2.53,23.76s-3,14.41-16.07,19.48c-4.92,1.88-13.11,3-21.83,3.42L48.57,119.53a3,3,0,0,1-4.66-2.75l.54-9.21a53.25,53.25,0,0,1-12.82-2.73c-13-5.06-16.07-19.48-16.07-19.48A98.33,98.33,0,0,1,13,61.6,93.7,93.7,0,0,1,15.56,37.84Z" fill="#cddde6" stroke="#cddde6" stroke-width="3.47"/><path d="M91.36,23.08S88.34,8.67,75.29,3.6C69.15,1.27,58,.1,47,0c-11,.1-22.2,1.27-28.34,3.6C5.56,8.67,2.54,23.08,2.54,23.08A98.33,98.33,0,0,0,0,46.84,93.24,93.24,0,0,0,2.54,70.61S5.56,85,18.61,90.08c4.92,1.88,13.11,3,21.83,3.42l17.91,11.28A3,3,0,0,0,63,102l-.54-9.21a53.25,53.25,0,0,0,12.82-2.73c13-5.06,16.07-19.48,16.07-19.48a98.33,98.33,0,0,0,2.53-23.76A93.7,93.7,0,0,0,91.36,23.08Z" fill="#3e4ad4"/><path d="M155.83,75.37H141.09V7.07h14.73Z" fill="#3e4ad4"/><path d="M180.12,22h-15.8V7.17h15.8ZM164.9,30.29h14.73V75.37H164.9Z" fill="#3e4ad4"/><path d="M183.63,72.15,189.19,60c4.88,2.83,10.44,5.17,16,5.17,2.63,0,4.1-.59,4.1-2,0-1.76-1.76-2-3.12-2.63l-7.9-3.12c-7.42-2.83-11-7.22-11-14,0-9.27,6.34-14.63,19.32-14.63a53.27,53.27,0,0,1,16.29,2.73l-4.1,11.9c-4.78-2-9.76-3.32-13.37-3.32-2.93,0-3.61.78-3.61,2,0,1.37,1.17,2,3.41,2.83L213,47.85c6.83,2.54,10.93,6.15,10.93,13.76,0,10.73-7.9,15.22-19.9,15.22A47,47,0,0,1,183.63,72.15Z" fill="#3e4ad4"/><path d="M244.8,22H229V7.17h15.8Zm-15.22,8.29h14.73V75.37H229.58Z" fill="#3e4ad4"/><path d="M250.84,52.83c0-15.81,9.66-24,21.37-24,7.32,0,11.9,3,14.73,7.61h.2V30.29h14.73V75.37H287.14V69.22h-.2c-2.83,4.58-7.42,7.61-14.73,7.61C260.51,76.83,250.84,68.63,250.84,52.83Zm35.9,0c0-6.44-4.49-10.54-10.44-10.54S266,46.39,266,52.83s4.49,10.54,10.34,10.54S286.75,59.27,286.75,52.83Z" fill="#3e4ad4"/><path d="M54.06,54.39a10.26,10.26,0,0,0-6.55-18.15,5.52,5.52,0,1,1,0-11h5.26a2.37,2.37,0,0,0,0-4.74H47.51A10.25,10.25,0,0,0,41,38.61a10.25,10.25,0,0,0,6.54,18.15,5.52,5.52,0,1,1,0,11H42.25a2.36,2.36,0,0,0,0,4.73h5.26a10.26,10.26,0,0,0,6.55-18.15ZM47.51,52A5.52,5.52,0,1,1,53,46.5,5.53,5.53,0,0,1,47.51,52Z" fill="#fff"/><g opacity="0.2"><path d="M70.95,31.76H21.89a2.6,2.6,0,0,1,0-5.21H70.95a2.6,2.6,0,0,1,0,5.21Z" fill="#fff"/><path d="M70.95,67.35H21.89a2.6,2.6,0,0,1,0-5.21H70.95a2.6,2.6,0,0,1,0,5.21Z" fill="#fff"/><path d="M37.09,50.16H21.89a2.6,2.6,0,0,1,0-5.21H37.09a2.6,2.6,0,0,1,0,5.21Z" fill="#fff"/><path d="M70.95,50.16H58.34a2.6,2.6,0,0,1,0-5.21h12.6a2.6,2.6,0,0,1,0,5.21Z" fill="#fff"/></g><path d="M149.32,101.35a.28.28,0,0,1-.29.29h-6.55a.27.27,0,0,1-.28-.29V91.22a.27.27,0,0,1,.28-.29h.95a.29.29,0,0,1,.31.29v9H149a.28.28,0,0,1,.29.29Z" fill="gray"/><path d="M161.22,90.93a.28.28,0,0,1,.29.29V92a.28.28,0,0,1-.29.29h-6v3.21h3.11a.25.25,0,0,1,.29.29v.78a.29.29,0,0,1-.29.31h-3.11v3.31h6.09a.28.28,0,0,1,.29.29v.83a.28.28,0,0,1-.29.29h-7.35a.27.27,0,0,1-.28-.29V91.22a.27.27,0,0,1,.28-.29Z" fill="gray"/><path d="M175.71,94.07c0,.11,0,.25-.17.29l-1,.23c-.2,0-.26-.09-.31-.21a3.85,3.85,0,0,0-3.63-2.25,4,4,0,0,0-4,4.18,4,4,0,0,0,4,4.16,3.61,3.61,0,0,0,3.58-2.65h-3.28a.29.29,0,0,1-.31-.29v-.67a.28.28,0,0,1,.31-.28h4.47a.27.27,0,0,1,.29.28v4.5a.28.28,0,0,1-.29.29h-.81a.29.29,0,0,1-.31-.29V99.82a4.21,4.21,0,0,1-3.86,2A5.34,5.34,0,0,1,165,96.29a5.47,5.47,0,0,1,5.57-5.56A5.32,5.32,0,0,1,175.71,94.07Z" fill="gray"/><path d="M181.38,101.38a.31.31,0,0,1-.31.26h-1c-.18,0-.29-.14-.21-.37l3.78-10.07a.4.4,0,0,1,.37-.28h1.44a.41.41,0,0,1,.37.28l3.78,10.05a.25.25,0,0,1-.23.38h-1.1a.34.34,0,0,1-.32-.26L187,98.77h-4.62Zm3.26-8.92h0l-1.82,5h3.7Z" fill="gray"/><path d="M201.07,101.35a.28.28,0,0,1-.29.29h-6.55a.27.27,0,0,1-.28-.29V91.22a.27.27,0,0,1,.28-.29h.95a.29.29,0,0,1,.31.29v9h5.29a.28.28,0,0,1,.29.29Z" fill="gray"/><path d="M213,101.38a.31.31,0,0,1-.31.26h-1c-.18,0-.29-.14-.21-.37l3.78-10.07a.4.4,0,0,1,.37-.28H217a.41.41,0,0,1,.37.28l3.78,10.05a.25.25,0,0,1-.23.38h-1.1a.34.34,0,0,1-.32-.26l-.95-2.62h-4.62Zm3.26-8.92h0l-1.82,5h3.7Z" fill="gray"/><path d="M227.53,91.17a.31.31,0,0,0-.33-.3h-1a.28.28,0,0,0-.29.3v.74h0v9.37a.31.31,0,0,0,.33.3h1a.28.28,0,0,0,.29-.3v-.74h0Z" fill="gray"/></g></g></svg>